<svg width="175" height="175" viewBox="0 0 175 175" fill="none" xmlns="http://www.w3.org/2000/svg">
<rect width="175" height="175" rx="25" fill="black"/>
<circle cx="87.5" cy="87.5" r="49.5" fill="#FF0000"/>
<path d="M75.168 101H70.2285V82.3848C68.4238 84.0723 66.2969 85.3203 63.8477 86.1289V81.6465C65.1367 81.2246 66.5371 80.4277 68.0488 79.2559C69.5605 78.0723 70.5977 76.6953 71.1602 75.125H75.168V101ZM83.2539 82.332H87.8066V84.8809C89.4355 82.9004 91.375 81.9102 93.625 81.9102C94.8203 81.9102 95.8574 82.1562 96.7363 82.6484C97.6152 83.1406 98.3359 83.8848 98.8984 84.8809C99.7188 83.8848 100.604 83.1406 101.553 82.6484C102.502 82.1562 103.516 81.9102 104.594 81.9102C105.965 81.9102 107.125 82.1914 108.074 82.7539C109.023 83.3047 109.732 84.1191 110.201 85.1973C110.541 85.9941 110.711 87.2832 110.711 89.0645V101H105.771V90.3301C105.771 88.4785 105.602 87.2832 105.262 86.7441C104.805 86.041 104.102 85.6895 103.152 85.6895C102.461 85.6895 101.811 85.9004 101.201 86.3223C100.592 86.7441 100.152 87.3652 99.8828 88.1855C99.6133 88.9941 99.4785 90.2773 99.4785 92.0352V101H94.5391V90.7695C94.5391 88.9531 94.4512 87.7812 94.2754 87.2539C94.0996 86.7266 93.8242 86.334 93.4492 86.0762C93.0859 85.8184 92.5879 85.6895 91.9551 85.6895C91.1934 85.6895 90.5078 85.8945 89.8984 86.3047C89.2891 86.7148 88.8496 87.3066 88.5801 88.0801C88.3223 88.8535 88.1934 90.1367 88.1934 91.9297V101H83.2539V82.332Z" fill="white"/>
</svg>
